# xmcd
#
# Track frame offsets: 
#        150
#        11870
#        22832
#        34703
#        45823
#        58619
#        71231
#        83074
#        95116
#        105341
#        116677
#        126909
#        137227
#        149025
#        159850
#        168424
#        180670
#        191668
#        201872
#        211779
#        222939
#        231951
#        240804
#        251557
#        262584
#        273155
#
# Disc length: 3786 seconds
#
# Revision: 3
# Processed by: cddbd v1.5.2PL0 Copyright (c) Steve Scherf et al.
# Submitted via: ExactAudioCopy v1.3
#
DISCID=660ec81a
DTITLE=Buck Owens and his Buckaroos - Tall Dark Stranger_CD6
DYEAR=2012
DGENRE=Country
TTITLE0=I Love You So Much It Hurts
TTITLE1=There Goes My Love
TTITLE2=Sweethearts in Heaven
TTITLE3=A Whole Lot of Somethin'
TTITLE4=Get Out of Town Before Sundown
TTITLE5=Something's Wrong
TTITLE6=In the Palm of Your Hand
TTITLE7=The Good Old Days (Are Here Again)
TTITLE8=I Know That You Know (That I Love You)
TTITLE9=When You Get Back from Nashville
TTITLE10=When You Get to Heaven (I'll Be There)
TTITLE11=Long Hot Summer
TTITLE12=Streets of Bakersfield
TTITLE13=She's Had All the Dreamin' She Can Stand
TTITLE14=Your Monkey Won't Be Home Tonight
TTITLE15=The Good Old Days (Are Here Again)
TTITLE16=Old Faithful
TTITLE17=Take a Taste of My Wine
TTITLE18=I Think I'm Going to Like Loving You
TTITLE19=Sweethearts in Heaven
TTITLE20=I've Got a Happy Heart
TTITLE21=Arms Full of Empty
TTITLE22=All the Dreamin' They Can Stand
TTITLE23=Honey... Let's Fall in Love
TTITLE24=When You Get to Heaven (I'll Be There)
TTITLE25=Love Makes the World Go Round
EXTD=
EXTT0=
EXTT1=
EXTT2=
EXTT3=
EXTT4=
EXTT5=
EXTT6=
EXTT7=
EXTT8=
EXTT9=
EXTT10=
EXTT11=
EXTT12=
EXTT13=
EXTT14=
EXTT15=
EXTT16=
EXTT17=
EXTT18=
EXTT19=
EXTT20=
EXTT21=
EXTT22=
EXTT23=
EXTT24=
EXTT25=
PLAYORDER=
